<svg width="25" height="26" viewBox="0 0 25 26" fill="white" xmlns="http://www.w3.org/2000/svg">
<path d="M12.5 19.25C12.8542 19.25 13.1513 19.13 13.3913 18.89C13.6304 18.6508 13.75 18.3542 13.75 18V12.9688C13.75 12.6146 13.6304 12.3229 13.3913 12.0938C13.1513 11.8646 12.8542 11.75 12.5 11.75C12.1458 11.75 11.8492 11.8696 11.61 12.1087C11.37 12.3487 11.25 12.6458 11.25 13V18.0312C11.25 18.3854 11.37 18.6771 11.61 18.9062C11.8492 19.1354 12.1458 19.25 12.5 19.25ZM12.5 9.25C12.8542 9.25 13.1513 9.13 13.3913 8.89C13.6304 8.65083 13.75 8.35417 13.75 8C13.75 7.64583 13.6304 7.34875 13.3913 7.10875C13.1513 6.86958 12.8542 6.75 12.5 6.75C12.1458 6.75 11.8492 6.86958 11.61 7.10875C11.37 7.34875 11.25 7.64583 11.25 8C11.25 8.35417 11.37 8.65083 11.61 8.89C11.8492 9.13 12.1458 9.25 12.5 9.25ZM12.5 25.5C10.7708 25.5 9.14583 25.1717 7.625 24.515C6.10417 23.8592 4.78125 22.9688 3.65625 21.8438C2.53125 20.7188 1.64083 19.3958 0.985 17.875C0.328333 16.3542 0 14.7292 0 13C0 11.2708 0.328333 9.64583 0.985 8.125C1.64083 6.60417 2.53125 5.28125 3.65625 4.15625C4.78125 3.03125 6.10417 2.14042 7.625 1.48375C9.14583 0.827917 10.7708 0.5 12.5 0.5C14.2292 0.5 15.8542 0.827917 17.375 1.48375C18.8958 2.14042 20.2188 3.03125 21.3438 4.15625C22.4688 5.28125 23.3592 6.60417 24.015 8.125C24.6717 9.64583 25 11.2708 25 13C25 14.7292 24.6717 16.3542 24.015 17.875C23.3592 19.3958 22.4688 20.7188 21.3438 21.8438C20.2188 22.9688 18.8958 23.8592 17.375 24.515C15.8542 25.1717 14.2292 25.5 12.5 25.5ZM12.5 23C15.2708 23 17.6304 22.0263 19.5788 20.0788C21.5263 18.1304 22.5 15.7708 22.5 13C22.5 10.2292 21.5263 7.86958 19.5788 5.92125C17.6304 3.97375 15.2708 3 12.5 3C9.72917 3 7.37 3.97375 5.4225 5.92125C3.47417 7.86958 2.5 10.2292 2.5 13C2.5 15.7708 3.47417 18.1304 5.4225 20.0788C7.37 22.0263 9.72917 23 12.5 23Z" />
</svg>
