<svg width="28" height="26" viewBox="0 0 28 26" fill="none" xmlns="http://www.w3.org/2000/svg">
<path d="M12.4986 18.5549L19.4422 13L12.4986 7.44507V11.6113H0V14.3887H12.4986V18.5549Z" fill="white"/>
<path d="M15.2774 0.500048C13.6353 0.495494 12.0085 0.816832 10.4915 1.44545C8.97442 2.07406 7.59717 2.99745 6.43951 4.16213L8.40318 6.1258C10.2391 4.2899 12.6805 3.27751 15.2774 3.27751C17.8743 3.27751 20.3157 4.2899 22.1516 6.1258C23.9875 7.96171 24.9999 10.4031 24.9999 13C24.9999 15.597 23.9875 18.0383 22.1516 19.8743C20.3157 21.7102 17.8743 22.7225 15.2774 22.7225C12.6805 22.7225 10.2391 21.7102 8.40318 19.8743L6.43951 21.8379C8.79897 24.1988 11.9375 25.5 15.2774 25.5C18.6173 25.5 21.7558 24.1988 24.1153 21.8379C26.4761 19.4785 27.7774 16.3399 27.7774 13C27.7774 9.66012 26.4761 6.52159 24.1153 4.16213C22.9576 2.99745 21.5804 2.07406 20.0633 1.44545C18.5463 0.816832 16.9195 0.495494 15.2774 0.500048Z" fill="white"/>
</svg>
