<svg width="24" height="26" viewBox="0 0 24 26" fill="none" xmlns="http://www.w3.org/2000/svg">
<path d="M23.0584 20.902C22.4564 19.4987 21.5827 18.2239 20.4861 17.1489C19.3928 16.0707 18.0977 15.2111 16.6723 14.6175C16.6595 14.6112 16.6468 14.608 16.634 14.6018C18.6223 13.1884 19.9148 10.8863 19.9148 8.28894C19.9148 3.98618 16.3723 0.5 12 0.5C7.62769 0.5 4.08516 3.98618 4.08516 8.28894C4.08516 10.8863 5.3777 13.1884 7.36599 14.6049C7.35322 14.6112 7.34046 14.6143 7.32769 14.6206C5.89791 15.2142 4.61494 16.0653 3.51389 17.152C2.41829 18.2279 1.54476 19.5024 0.941563 20.9052C0.348978 22.2784 0.0293836 23.7508 7.98059e-05 25.2425C-0.000772013 25.276 0.0052025 25.3093 0.0176515 25.3405C0.0301005 25.3718 0.0487719 25.4002 0.0725657 25.4242C0.0963595 25.4482 0.124794 25.4673 0.156194 25.4803C0.187594 25.4933 0.221325 25.5 0.255397 25.5H2.17028C2.3107 25.5 2.4224 25.3901 2.4256 25.255C2.48942 22.8304 3.47878 20.5597 5.2277 18.8386C7.03727 17.0578 9.44044 16.0779 12 16.0779C14.5596 16.0779 16.9627 17.0578 18.7723 18.8386C20.5212 20.5597 21.5106 22.8304 21.5744 25.255C21.5776 25.3932 21.6893 25.5 21.8297 25.5H23.7446C23.7787 25.5 23.8124 25.4933 23.8438 25.4803C23.8752 25.4673 23.9036 25.4482 23.9274 25.4242C23.9512 25.4002 23.9699 25.3718 23.9823 25.3405C23.9948 25.3093 24.0008 25.276 23.9999 25.2425C23.968 23.7412 23.6521 22.2808 23.0584 20.902ZM12 13.691C10.5351 13.691 9.1564 13.1288 8.11917 12.108C7.08195 11.0873 6.51067 9.73053 6.51067 8.28894C6.51067 6.84736 7.08195 5.49058 8.11917 4.46985C9.1564 3.44912 10.5351 2.88693 12 2.88693C13.4649 2.88693 14.8436 3.44912 15.8808 4.46985C16.9181 5.49058 17.4893 6.84736 17.4893 8.28894C17.4893 9.73053 16.9181 11.0873 15.8808 12.108C14.8436 13.1288 13.4649 13.691 12 13.691Z" fill="white"/>
</svg>
