<svg width="24" height="24" viewBox="0 0 24 24" fill="none" xmlns="http://www.w3.org/2000/svg">
<path d="M12 18.6667C12.3778 18.6667 12.6947 18.5387 12.9507 18.2827C13.2058 18.0276 13.3333 17.7111 13.3333 17.3333V13.3333H17.3333C17.7111 13.3333 18.0276 13.2053 18.2827 12.9493C18.5387 12.6942 18.6667 12.3778 18.6667 12C18.6667 11.6222 18.5387 11.3053 18.2827 11.0493C18.0276 10.7942 17.7111 10.6667 17.3333 10.6667H13.3333V6.66667C13.3333 6.28889 13.2058 5.972 12.9507 5.716C12.6947 5.46089 12.3778 5.33333 12 5.33333C11.6222 5.33333 11.3058 5.46089 11.0507 5.716C10.7947 5.972 10.6667 6.28889 10.6667 6.66667V10.6667H6.66667C6.28889 10.6667 5.972 10.7942 5.716 11.0493C5.46089 11.3053 5.33333 11.6222 5.33333 12C5.33333 12.3778 5.46089 12.6942 5.716 12.9493C5.972 13.2053 6.28889 13.3333 6.66667 13.3333H10.6667V17.3333C10.6667 17.7111 10.7947 18.0276 11.0507 18.2827C11.3058 18.5387 11.6222 18.6667 12 18.6667ZM2.66667 24C1.93333 24 1.30533 23.7391 0.782667 23.2173C0.260889 22.6947 0 22.0667 0 21.3333V2.66667C0 1.93333 0.260889 1.30533 0.782667 0.782667C1.30533 0.260889 1.93333 0 2.66667 0H21.3333C22.0667 0 22.6947 0.260889 23.2173 0.782667C23.7391 1.30533 24 1.93333 24 2.66667V21.3333C24 22.0667 23.7391 22.6947 23.2173 23.2173C22.6947 23.7391 22.0667 24 21.3333 24H2.66667ZM2.66667 21.3333H21.3333V2.66667H2.66667V21.3333Z" fill="white" fill-opacity="0.6"/>
</svg>
