<svg width="16" height="16" viewBox="0 0 16 16" fill="none" xmlns="http://www.w3.org/2000/svg">
<path d="M15.6166 4.01917L11.9808 0.383443C11.8606 0.261959 11.7174 0.16552 11.5597 0.0997041C11.4019 0.0338879 11.2327 0 11.0617 0C10.8908 0 10.7215 0.0338879 10.5638 0.0997041C10.406 0.16552 10.2629 0.261959 10.1426 0.383443L0.382281 10.1438C0.261007 10.2641 0.164783 10.4073 0.0991681 10.5651C0.0335533 10.7228 -0.000151666 10.892 5.13027e-07 11.0629V14.6986C5.13027e-07 15.0438 0.13711 15.3748 0.381166 15.6188C0.625222 15.8629 0.956233 16 1.30138 16H4.93711C5.10797 16.0002 5.27716 15.9664 5.43491 15.9008C5.59267 15.8352 5.73586 15.739 5.85621 15.6177L15.6166 5.85737C15.858 5.61237 15.9933 5.28223 15.9933 4.93827C15.9933 4.59432 15.858 4.26417 15.6166 4.01917ZM4.93711 14.6986H1.30138V11.0629L8.45897 3.9053L12.0947 7.54103L4.93711 14.6986ZM13.0138 6.62193L9.37807 2.9862L11.0617 1.30254L14.6975 4.93827L13.0138 6.62193Z" fill="white" fill-opacity="0.6"/>
</svg>
