<svg width="16" height="16" viewBox="0 0 16 16" fill="none" xmlns="http://www.w3.org/2000/svg">
<path d="M7.59 9.20612L1.93357 14.8625C1.72194 15.0742 1.45259 15.18 1.12551 15.18C0.798441 15.18 0.529087 15.0742 0.317452 14.8625C0.105817 14.6509 0 14.3816 0 14.0545C0 13.7274 0.105817 13.4581 0.317452 13.2464L5.97388 7.59L0.317452 1.93357C0.105817 1.72194 0 1.45259 0 1.12551C0 0.798441 0.105817 0.529087 0.317452 0.317452C0.529087 0.105817 0.798441 0 1.12551 0C1.45259 0 1.72194 0.105817 1.93357 0.317452L7.59 5.97388L13.2464 0.317452C13.4581 0.105817 13.7274 0 14.0545 0C14.3816 0 14.6509 0.105817 14.8625 0.317452C15.0742 0.529087 15.18 0.798441 15.18 1.12551C15.18 1.45259 15.0742 1.72194 14.8625 1.93357L9.20612 7.59L14.8625 13.2464C15.0742 13.4581 15.18 13.7274 15.18 14.0545C15.18 14.3816 15.0742 14.6509 14.8625 14.8625C14.6509 15.0742 14.3816 15.18 14.0545 15.18C13.7274 15.18 13.4581 15.0742 13.2464 14.8625L7.59 9.20612Z" fill="#F24E1E"/>
</svg>
