<svg width="17" height="14" viewBox="0 0 17 14" fill="none" xmlns="http://www.w3.org/2000/svg">
<path d="M5.58268 9.83333L14.1868 1.22917C14.4542 0.961805 14.7945 0.828125 15.2077 0.828125C15.6209 0.828125 15.9612 0.961805 16.2285 1.22917C16.4959 1.49653 16.6296 1.8368 16.6296 2.25C16.6296 2.66319 16.4959 3.00347 16.2285 3.27083L6.60352 12.8958C6.31185 13.1875 5.97157 13.3333 5.58268 13.3333C5.19379 13.3333 4.85352 13.1875 4.56185 12.8958L0.770182 9.10417C0.502821 8.83681 0.369141 8.49653 0.369141 8.08333C0.369141 7.67014 0.502821 7.32986 0.770182 7.0625C1.03754 6.79514 1.37782 6.66146 1.79102 6.66146C2.20421 6.66146 2.54449 6.79514 2.81185 7.0625L5.58268 9.83333Z" fill="#4ECB71"/>
</svg>
