<svg width="27" height="24" viewBox="0 0 27 24" fill="none" xmlns="http://www.w3.org/2000/svg">
<path d="M21.6 7.2V4.8H19.2V2.4H21.6V0H24V2.4H26.4V4.8H24V7.2H21.6ZM2.4 24C1.74 24 1.1752 23.7652 0.7056 23.2956C0.2352 22.8252 0 22.26 0 21.6V7.2C0 6.54 0.2352 5.9752 0.7056 5.5056C1.1752 5.0352 1.74 4.8 2.4 4.8H6.18L8.4 2.4H15.6V4.8H9.45L7.26 7.2H2.4V21.6H21.6V10.8H24V21.6C24 22.26 23.7652 22.8252 23.2956 23.2956C22.8252 23.7652 22.26 24 21.6 24H2.4ZM12 19.8C13.5 19.8 14.7752 19.2752 15.8256 18.2256C16.8752 17.1752 17.4 15.9 17.4 14.4C17.4 12.9 16.8752 11.6248 15.8256 10.5744C14.7752 9.5248 13.5 9 12 9C10.5 9 9.2248 9.5248 8.1744 10.5744C7.1248 11.6248 6.6 12.9 6.6 14.4C6.6 15.9 7.1248 17.1752 8.1744 18.2256C9.2248 19.2752 10.5 19.8 12 19.8ZM12 17.4C11.16 17.4 10.45 17.11 9.87 16.53C9.29 15.95 9 15.24 9 14.4C9 13.56 9.29 12.85 9.87 12.27C10.45 11.69 11.16 11.4 12 11.4C12.84 11.4 13.55 11.69 14.13 12.27C14.71 12.85 15 13.56 15 14.4C15 15.24 14.71 15.95 14.13 16.53C13.55 17.11 12.84 17.4 12 17.4Z" fill="white" fill-opacity="0.6"/>
</svg>
