<svg width="20" height="20" viewBox="0 0 20 20" fill="none" xmlns="http://www.w3.org/2000/svg">
<g clip-path="url(#clip0_12_4034)">
<path d="M19.3012 18.1241L13.0167 11.8396C13.9919 10.5788 14.5195 9.03732 14.5195 7.41598C14.5195 5.47522 13.762 3.65544 12.3924 2.28335C11.0227 0.911263 9.1981 0.15625 7.25973 0.15625C5.32139 0.15625 3.49678 0.913683 2.1271 2.28335C0.755013 3.65303 0 5.47522 0 7.41598C0 9.35435 0.757433 11.1789 2.1271 12.5487C3.49678 13.9207 5.31897 14.6757 7.25973 14.6757C8.88107 14.6757 10.4201 14.1482 11.6809 13.1754L17.9654 19.4575C17.9839 19.4759 18.0058 19.4905 18.0299 19.5005C18.0539 19.5105 18.0797 19.5156 18.1057 19.5156C18.1318 19.5156 18.1576 19.5105 18.1817 19.5005C18.2058 19.4905 18.2277 19.4759 18.2461 19.4575L19.3012 18.4048C19.3197 18.3864 19.3343 18.3645 19.3443 18.3404C19.3543 18.3164 19.3594 18.2905 19.3594 18.2645C19.3594 18.2384 19.3543 18.2126 19.3443 18.1885C19.3343 18.1644 19.3197 18.1425 19.3012 18.1241ZM11.0928 11.2491C10.0668 12.2727 8.70684 12.8366 7.25973 12.8366C5.81263 12.8366 4.45264 12.2727 3.42659 11.2491C2.40297 10.223 1.83913 8.86309 1.83913 7.41598C1.83913 5.96888 2.40297 4.60647 3.42659 3.58284C4.45264 2.55922 5.81263 1.99538 7.25973 1.99538C8.70684 1.99538 10.0693 2.5568 11.0928 3.58284C12.1165 4.60889 12.6803 5.96888 12.6803 7.41598C12.6803 8.86309 12.1165 10.2255 11.0928 11.2491Z" fill="white" fill-opacity="0.8"/>
</g>
<defs>
<clipPath id="clip0_12_4034">
<rect width="19.3594" height="19.3594" fill="white" transform="translate(0 0.15625)"/>
</clipPath>
</defs>
</svg>
